<svg width="1024" height="638" xmlns="http://www.w3.org/2000/svg" xmlns:xlink="http://www.w3.org/1999/xlink"><defs><path d="M448.443 348.443h744c13.807 0 25 11.193 25 25v744c0 13.807-11.193 25-25 25h-744c-13.807 0-25-11.193-25-25v-744c0-13.807 11.193-25 25-25z" id="b"/><filter x="-2.8%" y="-2.5%" width="105.5%" height="105.5%" filterUnits="objectBoundingBox" id="a"><feOffset dy="2" in="SourceAlpha" result="shadowOffsetOuter1"/><feGaussianBlur stdDeviation="7" in="shadowOffsetOuter1" result="shadowBlurOuter1"/><feComposite in="shadowBlurOuter1" in2="SourceAlpha" operator="out" result="shadowBlurOuter1"/><feColorMatrix values="0 0 0 0 0.663156703 0 0 0 0 0.663156703 0 0 0 0 0.663156703 0 0 0 0.5 0" in="shadowBlurOuter1"/></filter><path d="M-55.718-168.158h624c13.807 0 25 11.193 25 25v624c0 13.807-11.193 25-25 25h-624c-13.807 0-25-11.193-25-25v-624c0-13.807 11.193-25 25-25z" id="d"/><filter x="-3.9%" y="-3.6%" width="107.9%" height="107.9%" filterUnits="objectBoundingBox" id="c"><feOffset dy="2" in="SourceAlpha" result="shadowOffsetOuter1"/><feGaussianBlur stdDeviation="8.5" in="shadowOffsetOuter1" result="shadowBlurOuter1"/><feComposite in="shadowBlurOuter1" in2="SourceAlpha" operator="out" result="shadowBlurOuter1"/><feColorMatrix values="0 0 0 0 0.672809103 0 0 0 0 0.672809103 0 0 0 0 0.672809103 0 0 0 0.5 0" in="shadowBlurOuter1"/></filter></defs><g fill="none" fill-rule="evenodd"><path d="M1032.85-320.85v983c0 13.807-11.193 25-25 25h-983c-13.807 0-25-11.193-25-25v-983c0-13.807 11.193-25 25-25h983c13.807 0 25 11.193 25 25z" fill-opacity=".327" fill="#DEE7FF"/><g transform="rotate(45 820.443 745.443)"><use fill="#000" filter="url(#a)" xlink:href="#b"/><use fill-opacity=".327" fill="#D6CFFA" xlink:href="#b"/></g><g transform="rotate(45 256.282 168.842)"><use fill="#000" filter="url(#c)" xlink:href="#d"/><use fill-opacity=".685" fill="#FF9871" xlink:href="#d"/></g></g></svg>