<svg width="821" height="491" xmlns="http://www.w3.org/2000/svg"><defs><filter x="-3.9%" y="-6.7%" width="107.8%" height="113.4%" filterUnits="objectBoundingBox" id="a"><feOffset dy="2" in="SourceAlpha" result="shadowOffsetOuter1"/><feGaussianBlur stdDeviation="7" in="shadowOffsetOuter1" result="shadowBlurOuter1"/><feColorMatrix values="0 0 0 0 0.708757926 0 0 0 0 0.70484139 0 0 0 0 0.70484139 0 0 0 0.5 0" in="shadowBlurOuter1" result="shadowMatrixOuter1"/><feMerge><feMergeNode in="shadowMatrixOuter1"/><feMergeNode in="SourceGraphic"/></feMerge></filter></defs><g filter="url(#a)" transform="translate(14 12)" fill="none" fill-rule="evenodd"><rect fill="#FFF" width="793" height="463" rx="8"/><g transform="translate(294 237)"><rect stroke="#E5E5E5" fill="#FFF" x=".5" y=".5" width="215" height="79" rx="2"/><path fill="#D8D8D8" d="M15.273 15.135h146.182v4.324H15.273zM15.273 25.946h98.182v4.324H15.273z"/><path fill="#A3A3A3" d="M161.455 60.541h41.455v2.162h-41.455z"/><ellipse fill="#8ED481" cx="197.455" cy="20.541" rx="5.455" ry="5.405"/></g><g transform="translate(540 237)"><rect stroke="#E5E5E5" fill="#FFF" x=".5" y=".5" width="215" height="79" rx="2"/><path fill="#D8D8D8" d="M15.273 15.135h146.182v4.324H15.273zM15.273 25.946h98.182v4.324H15.273z"/><path fill="#A3A3A3" d="M161.455 60.541h41.455v2.162h-41.455z"/><ellipse fill="#8ED481" cx="197.455" cy="20.541" rx="5.455" ry="5.405"/></g><path d="M6 0h781a6 6 0 0 1 6 6v23H0V6a6 6 0 0 1 6-6z" fill="#F2F2F2"/><circle fill="#FF7AF3" cx="19.5" cy="15.5" r="4.5"/><circle fill="#A7F2FF" cx="32.5" cy="15.5" r="4.5"/><circle fill="#FFC47C" cx="45.5" cy="15.5" r="4.5"/><g transform="translate(540 330)"><rect stroke="#E5E5E5" fill="#FFF" x=".5" y=".5" width="215" height="79" rx="2"/><path fill="#D8D8D8" d="M15.273 15.135h146.182v4.324H15.273zM15.273 25.946h98.182v4.324H15.273z"/><path fill="#A3A3A3" d="M161.455 60.541h41.455v2.162h-41.455z"/><ellipse fill="#8ED481" cx="197.455" cy="20.541" rx="5.455" ry="5.405"/></g><g transform="translate(48 142)"><rect stroke="#E5E5E5" fill="#FFF" x=".5" y=".5" width="215" height="79" rx="2"/><path fill="#D8D8D8" d="M15.273 15.135h146.182v4.324H15.273zM15.273 25.946h98.182v4.324H15.273z"/><path fill="#A3A3A3" d="M161.455 60.541h41.455v2.162h-41.455z"/><ellipse fill="#8ED481" cx="197.455" cy="20.541" rx="5.455" ry="5.405"/></g><g transform="translate(48 237)"><rect stroke="#E5E5E5" fill="#FFF" x=".5" y=".5" width="215" height="79" rx="2"/><path fill="#D8D8D8" d="M15.273 15.135h146.182v4.324H15.273zM15.273 25.946h98.182v4.324H15.273z"/><path fill="#A3A3A3" d="M161.455 60.541h41.455v2.162h-41.455z"/><ellipse fill="#8ED481" cx="197.455" cy="20.541" rx="5.455" ry="5.405"/></g><g transform="translate(48 330)"><rect stroke="#E5E5E5" fill="#FFF" x=".5" y=".5" width="215" height="79" rx="2"/><path fill="#D8D8D8" d="M15.273 15.135h146.182v4.324H15.273zM15.273 25.946h98.182v4.324H15.273z"/><path fill="#A3A3A3" d="M161.455 60.541h41.455v2.162h-41.455z"/><ellipse fill="#8ED481" cx="197.455" cy="20.541" rx="5.455" ry="5.405"/></g><g transform="translate(294 142)"><rect stroke="#E5E5E5" fill="#FFF" x=".5" y=".5" width="215" height="79" rx="2"/><path fill="#D8D8D8" d="M15.273 15.135h146.182v4.324H15.273zM15.273 25.946h98.182v4.324H15.273z"/><path fill="#A3A3A3" d="M161.455 60.541h41.455v2.162h-41.455z"/><ellipse fill="#8ED481" cx="197.455" cy="20.541" rx="5.455" ry="5.405"/></g><g transform="translate(540 142)"><rect stroke="#E5E5E5" fill="#FFF" x=".5" y=".5" width="215" height="79" rx="2"/><path fill="#D8D8D8" d="M15.273 15.135h146.182v4.324H15.273zM15.273 25.946h98.182v4.324H15.273z"/><path fill="#A3A3A3" d="M161.455 60.541h41.455v2.162h-41.455z"/><ellipse fill="#8ED481" cx="197.455" cy="20.541" rx="5.455" ry="5.405"/></g><path fill="#DFDFDF" d="M87 96h129v13H87z"/><path fill="#DCA8FF" d="M72 46h70v7H72z"/><path fill="#DFDFDF" d="M337 96h129v13H337zM590 96h129v13H590z"/></g></svg>